 http://imageshack.us/m/864/7676/mv5bmjy1njcxodq4mv5bml5.jpg

Country.......: USA
Genre.........: Horror, Thriller
Date release..: 14.10.2007 [World]
Director......: Oren Peli
Writers.......: Oren Peli
Duration......: 86 min.
More..........: http://www.imdb.com/title/tt1179904
Trailer.......: http://www.imdb.com/video/imdb/vi1135609113
Trailer.......:

Pilot :
After moving into a suburban home, a couple becomes increasingly disturbed by a nightly demonic presence. 

Cats :
Katie Featherston   	 ...  	Katie
Micah Sloat 	... 	Micah
Mark Fredrichs 	... 	Psychic
Amber Armstrong 	... 	Amber
Ashley Palmer 	... 	Diane Girl on the Internet
Randy McDowell 	... 	Lt. Randy Hudson
James Piper 	... 	Richard 

Data Technical :
!!! SAMPLE !!!
Audio.....: English
Subtitles.: English .srt, Spanish .srt, Italian .srt, French .srt, Dutch .srt, Polish .txt
Format                           : AVI
Format/Info                      : Audio Video Interleave
File size                        : 700 MiB
Duration                         : 1h 26mn
Overall bit rate                 : 1 134 Kbps
Writing application              : VirtualDubMod 1.5.10.2 (build 2540/release)
Writing library                  : VirtualDubMod build 2540/release
Video
ID                               : 0
Format                           : MPEG-4 Visual
Format profile                   : Advanced Simple@L5
Format settings, BVOP            : Yes
Format settings, QPel            : No
Format settings, GMC             : No warppoints
Format settings, Matrix          : Default (H.263)
Muxing mode                      : Packed bitstream
Codec ID                         : XVID
Codec ID/Hint                    : XviD
Duration                         : 1h 26mn
Bit rate                         : 676 Kbps
Width                            : 608 pixels
Height                           : 336 pixels
Display aspect ratio             : 16:9
Frame rate                       : 23.976 fps
Color space                      : YUV
Chroma subsampling               : 4:2:0
Bit depth                        : 8 bits
Scan type                        : Progressive
Bits/(Pixel*Frame)               : 0.138
Stream size                      : 418 MiB (60%)
Writing library                  : XviD 1.3.0.dev55
Audio
ID                               : 1
Format                           : AC-3
Format/Info                      : Audio Coding 3
Mode extension                   : CM (complete main)
Codec ID                         : 2000
Duration                         : 1h 26mn
Bit rate mode                    : Constant
Bit rate                         : 448 Kbps
Channel(s)                       : 6 channels
Channel positions                : Front: L C R, Side: L R, LFE
Sampling rate                    : 48.0 KHz
Bit depth                        : 16 bits
Stream size                      : 277 MiB (40%)
Alignment                        : Split accross interleaves
Interleave, duration             : 42 ms (1.00 video frame)
Interleave, preload duration     : 500 ms

Screen : 
http://imageshack.us/m/685/6663/paranormalactivity2007s.jpg 
http://imageshack.us/m/219/6663/paranormalactivity2007s.jpg 
http://imageshack.us/m/685/3082/paranormalactivity2007ss.jpg 
http://imageshack.us/m/861/6663/paranormalactivity2007s.jpg 
http://imageshack.us/m/196/6663/paranormalactivity2007s.jpg